<?xml version="1.0" encoding="UTF-8" standalone="no"?>
<!DOCTYPE svg PUBLIC "-//W3C//DTD SVG 1.1//EN" "http://www.w3.org/Graphics/SVG/1.1/DTD/svg11.dtd">
<svg width="100%" height="100%" viewBox="0 0 28 29" version="1.1" xmlns="http://www.w3.org/2000/svg" xmlns:xlink="http://www.w3.org/1999/xlink" xml:space="preserve" xmlns:serif="http://www.serif.com/" style="fill-rule:evenodd;clip-rule:evenodd;stroke-linejoin:round;stroke-miterlimit:1.41421;">
    <g id="Plan-de-travail2" serif:id="Plan de travail2" transform="matrix(1.00532,0,0,0.891788,2.55715,0.425037)">
        <rect x="-2.544" y="-0.477" width="26.91" height="32.424" style="fill:none;"/>
        <g id="Plan-de-travail1" serif:id="Plan de travail1" transform="matrix(0.862324,0,0,1.04178,3.68468,-1.74775)">
            <rect x="1.855" y="1.295" width="21.886" height="30.787" style="fill:none;"/>
            <g transform="matrix(1.173,0,0,1.14823,-1844.25,-24.0805)">
                <g transform="matrix(1.04001,0,0,1.02881,-13.6442,-7.98971)">
                    <ellipse cx="1535.34" cy="34.047" rx="4.888" ry="4.561" style="fill:white;"/>
                </g>
                <g transform="matrix(0.917573,0,0,0.951911,178.189,-6.84572)">
                    <path d="M1540.99,47.183C1540.99,45.983 1540.47,44.832 1539.54,43.983C1538.62,43.135 1537.37,42.658 1536.06,42.658C1533.06,42.658 1529.23,42.658 1526.23,42.658C1524.92,42.658 1523.67,43.135 1522.75,43.983C1521.83,44.832 1521.31,45.983 1521.31,47.183C1521.31,51.837 1521.31,58.412 1521.31,58.412L1540.99,58.412C1540.99,58.412 1540.99,51.837 1540.99,47.183Z" style="fill:white;"/>
                </g>
            </g>
        </g>
        <g transform="matrix(0.868088,0,0,0.987779,-981.944,-14.7038)">
            <g>
                <g>
                    <g transform="matrix(1.00937,0,0,0.748571,0.209425,6.65367)">
                        <g>
                            <rect x="1118" y="27.256" width="18.424" height="5.809" style="fill:rgb(217,65,44);"/>
                        </g>
                    </g>
                    <g transform="matrix(6.18063e-17,-1,0.755588,4.58368e-17,1115.19,1156.44)">
                        <g>
                            <rect x="1118" y="27.256" width="18.424" height="5.809" style="fill:rgb(217,65,44);"/>
                        </g>
                    </g>
                </g>
            </g>
        </g>
    </g>
</svg>
