<?xml version="1.0" encoding="UTF-8" standalone="no"?>
<!DOCTYPE svg PUBLIC "-//W3C//DTD SVG 1.1//EN" "http://www.w3.org/Graphics/SVG/1.1/DTD/svg11.dtd">
<svg width="100%" height="100%" viewBox="0 0 27 35" version="1.1" xmlns="http://www.w3.org/2000/svg" xmlns:xlink="http://www.w3.org/1999/xlink" xml:space="preserve" xmlns:serif="http://www.serif.com/" style="fill-rule:evenodd;clip-rule:evenodd;stroke-linecap:round;stroke-miterlimit:1.5;">
    <g id="Plan-de-travail1" serif:id="Plan de travail1" transform="matrix(0.972268,0,0,0.996183,-0.899132,0)">
        <rect x="0.925" y="0" width="27.124" height="34.779" style="fill:none;"/>
        <clipPath id="_clip1">
            <rect x="0.925" y="0" width="27.124" height="34.779"/>
        </clipPath>
        <g clip-path="url(#_clip1)">
            <g transform="matrix(1.01897,0,0,1.00504,-1361.69,-133.822)">
                <g transform="matrix(0.996605,0,0,0.986168,1337.89,132.907)">
                    <path d="M0,0.882L16.621,0.882L25.459,8.667L25.459,34.671L0,34.671L0,0.882Z" style="fill:white;stroke:rgb(62,62,62);stroke-width:1.06px;"/>
                </g>
                <g transform="matrix(0.811842,0.00385123,-0.00365706,0.754393,220.453,29.2168)">
                    <path d="M1398.03,132.034L1407.84,141.252L1398.03,141.252L1398.03,132.034Z" style="fill:white;stroke:rgb(62,62,62);stroke-width:1.37px;"/>
                </g>
                <g transform="matrix(0.818467,0,0,0.829787,214.317,24.2059)">
                    <rect x="1375.39" y="153.314" width="23.373" height="0.974" style="fill:rgb(62,62,62);stroke:rgb(62,62,62);stroke-width:2.03px;stroke-linejoin:round;"/>
                </g>
                <g transform="matrix(0.818467,0,0,0.829787,214.317,29.5047)">
                    <rect x="1375.39" y="153.314" width="23.373" height="0.974" style="fill:rgb(62,62,62);stroke:rgb(62,62,62);stroke-width:2.03px;stroke-linejoin:round;"/>
                </g>
                <g transform="matrix(0.818467,0,0,0.829787,214.317,34.0377)">
                    <rect x="1375.39" y="153.314" width="23.373" height="0.974" style="fill:rgb(62,62,62);stroke:rgb(62,62,62);stroke-width:2.03px;stroke-linejoin:round;"/>
                </g>
            </g>
        </g>
    </g>
</svg>
