<?xml version="1.0" encoding="UTF-8" standalone="no"?>
<!DOCTYPE svg PUBLIC "-//W3C//DTD SVG 1.1//EN" "http://www.w3.org/Graphics/SVG/1.1/DTD/svg11.dtd">
<svg width="100%" height="100%" viewBox="0 0 20 24" version="1.1" xmlns="http://www.w3.org/2000/svg" xmlns:xlink="http://www.w3.org/1999/xlink" xml:space="preserve" xmlns:serif="http://www.serif.com/" style="fill-rule:evenodd;clip-rule:evenodd;stroke-linejoin:round;stroke-miterlimit:1.41421;">
    <g id="Plan-de-travail1" serif:id="Plan de travail1" transform="matrix(0.972973,0,0,0.998405,-0.479416,0.00414216)">
        <rect x="0.493" y="0.061" width="19.646" height="23.78" style="fill:none;"/>
        <g transform="matrix(1.14347,0,0,1.11435,-2020.04,-220.069)">
            <g transform="matrix(1,0,0,0.827223,8.537,37.7737)">
                <rect x="1759.57" y="200.818" width="14.994" height="17.83" style="fill:white;"/>
            </g>
            <g transform="matrix(1.12676,0,0,1,-225.078,0)">
                <rect x="1768.07" y="200.371" width="15.085" height="2.55" style="fill:white;"/>
            </g>
            <g transform="matrix(1,0,0,1,-2.60683,2.72567)">
                <path d="M1775.03,205.035C1775.03,204.769 1774.92,204.513 1774.73,204.325C1774.55,204.137 1774.29,204.031 1774.02,204.031C1773.94,204.031 1773.86,204.031 1773.78,204.031C1773.51,204.031 1773.26,204.137 1773.07,204.325C1772.88,204.513 1772.77,204.769 1772.77,205.035C1772.77,206.92 1772.77,210.974 1772.77,212.948C1772.77,213.571 1773.28,214.076 1773.9,214.076C1774.52,214.076 1775.03,213.571 1775.03,212.948C1775.03,210.974 1775.03,206.92 1775.03,205.035Z" style="fill:rgb(62,62,62);"/>
            </g>
            <g transform="matrix(1,0,0,1,1.704,2.72567)">
                <path d="M1775.03,205.035C1775.03,204.769 1774.92,204.513 1774.73,204.325C1774.55,204.137 1774.29,204.031 1774.02,204.031C1773.94,204.031 1773.86,204.031 1773.78,204.031C1773.51,204.031 1773.26,204.137 1773.07,204.325C1772.88,204.513 1772.77,204.769 1772.77,205.035C1772.77,206.92 1772.77,210.974 1772.77,212.948C1772.77,213.571 1773.28,214.076 1773.9,214.076C1774.52,214.076 1775.03,213.571 1775.03,212.948C1775.03,210.974 1775.03,206.92 1775.03,205.035Z" style="fill:rgb(62,62,62);"/>
            </g>
            <g transform="matrix(1,0,0,1,6.11003,2.72567)">
                <path d="M1775.03,205.035C1775.03,204.769 1774.92,204.513 1774.73,204.325C1774.55,204.137 1774.29,204.031 1774.02,204.031C1773.94,204.031 1773.86,204.031 1773.78,204.031C1773.51,204.031 1773.26,204.137 1773.07,204.325C1772.88,204.513 1772.77,204.769 1772.77,205.035C1772.77,206.92 1772.77,210.974 1772.77,212.948C1772.77,213.571 1773.28,214.076 1773.9,214.076C1774.52,214.076 1775.03,213.571 1775.03,212.948C1775.03,210.974 1775.03,206.92 1775.03,205.035Z" style="fill:rgb(62,62,62);"/>
            </g>
            <g transform="matrix(1,0,0,1,-0.42492,0)">
                <rect x="1771.79" y="197.609" width="8.498" height="1.912" style="fill:white;"/>
            </g>
        </g>
    </g>
    <g id="Plan-de-travail2" serif:id="Plan de travail2" transform="matrix(1.07065,0,0,1.02243,-0.841235,-0.666461)">
        <rect x="0.786" y="0.652" width="17.865" height="23.09" style="fill:none;"/>
    </g>
</svg>
