<?xml version="1.0" encoding="UTF-8" standalone="no"?>
<!DOCTYPE svg PUBLIC "-//W3C//DTD SVG 1.1//EN" "http://www.w3.org/Graphics/SVG/1.1/DTD/svg11.dtd">
<svg width="100%" height="100%" viewBox="0 0 35 44" version="1.1" xmlns="http://www.w3.org/2000/svg" xmlns:xlink="http://www.w3.org/1999/xlink" xml:space="preserve" xmlns:serif="http://www.serif.com/" style="fill-rule:evenodd;clip-rule:evenodd;stroke-linecap:square;">
    <g id="Plan-de-travail2" serif:id="Plan de travail2" transform="matrix(0.911071,0,0,0.964304,1.43687,0.705612)">
        <rect x="-1.577" y="-0.732" width="38.312" height="44.848" style="fill:none;"/>
        <clipPath id="_clip1">
            <rect x="-1.577" y="-0.732" width="38.312" height="44.848"/>
        </clipPath>
        <g clip-path="url(#_clip1)">
            <g id="Plan-de-travail1" serif:id="Plan de travail1" transform="matrix(1.05937,0,0,1.01785,-2.4744,-2.2584)">
                <rect x="0.83" y="1.385" width="36.245" height="44.192" style="fill:none;"/>
                <g>
                    <g transform="matrix(1.02647,0,0,1.02036,-1248.5,-161.263)">
                        <g transform="matrix(1.00937,0,0,0.998501,1215.99,157.81)">
                            <path d="M1.718,2.245L29.139,2.245L35.464,9.629L35.464,44.428L1.718,44.428L1.718,2.245Z" style="fill:white;stroke:rgb(62,62,62);stroke-width:0.83px;"/>
                        </g>
                        <g transform="matrix(1.47947,0,0,2.24116,-575.057,-185.013)">
                            <rect x="1214.85" y="163.364" width="16.873" height="9.397" style="fill:white;stroke:rgb(62,62,62);stroke-width:0.44px;"/>
                        </g>
                        <g transform="matrix(1.00937,0,0,0.998501,-0.072962,-2.84217e-14)">
                            <rect x="1216.54" y="185.602" width="13.631" height="2.747" style="fill:rgb(62,62,62);stroke:rgb(62,62,62);stroke-width:0.83px;"/>
                        </g>
                        <g transform="matrix(1.00937,0,0,0.998501,-0.072962,4.99251)">
                            <rect x="1216.54" y="185.602" width="13.631" height="2.747" style="fill:rgb(62,62,62);stroke:rgb(62,62,62);stroke-width:0.83px;"/>
                        </g>
                        <g transform="matrix(1.00937,0,0,0.998501,-0.072962,9.98501)">
                            <rect x="1216.54" y="185.602" width="13.631" height="2.747" style="fill:rgb(62,62,62);stroke:rgb(62,62,62);stroke-width:0.83px;"/>
                        </g>
                    </g>
                    <g transform="matrix(1.03609,0,0,1.34051,-1251.36,-216.943)">
                        <rect x="1214.85" y="163.364" width="16.873" height="9.397" style="fill:white;stroke:rgb(62,62,62);stroke-width:0.71px;"/>
                    </g>
                </g>
            </g>
        </g>
    </g>
</svg>
