<?xml version="1.0" encoding="UTF-8" standalone="no"?>
<!DOCTYPE svg PUBLIC "-//W3C//DTD SVG 1.1//EN" "http://www.w3.org/Graphics/SVG/1.1/DTD/svg11.dtd">
<svg width="100%" height="100%" viewBox="0 0 42 42" version="1.1" xmlns="http://www.w3.org/2000/svg" xmlns:xlink="http://www.w3.org/1999/xlink" xml:space="preserve" xmlns:serif="http://www.serif.com/" style="fill-rule:evenodd;clip-rule:evenodd;stroke-linejoin:round;stroke-miterlimit:1.41421;">
    <g id="Plan-de-travail1" serif:id="Plan de travail1" transform="matrix(1,0,0,0.988506,-0.364096,-5.09874)">
        <rect x="0.364" y="5.158" width="41.871" height="42.235" style="fill:none;"/>
        <g transform="matrix(0.881607,0.891858,-0.826263,0.835871,-1153.45,-1649)">
            <g transform="matrix(1,0,-5.55112e-17,1,-117.363,110.435)">
                <g transform="matrix(1,0,-4.21786e-17,0.759822,5.0944e-13,38.7396)">
                    <path d="M1711.2,171.478L1711.2,203.993L1734.18,203.933L1734.11,171.478L1727.87,161.296L1717.68,161.296L1711.2,171.478Z" style="fill:rgb(217,65,44);"/>
                </g>
                <g transform="matrix(1,0,-5.55112e-17,1,-0.618309,-0.373272)">
                    <circle cx="1723.31" cy="166.638" r="2.286" style="fill:rgb(217,65,44);"/>
                </g>
            </g>
            <g transform="matrix(1,0,-5.55112e-17,1,-117.363,110.435)">
                <g transform="matrix(1,0,-4.21786e-17,0.759822,5.0944e-13,38.7396)">
                    <path d="M1711.2,171.478L1711.2,203.993L1734.18,203.933L1734.11,171.478L1727.87,161.296L1717.68,161.296L1711.2,171.478Z" style="fill:rgb(217,65,44);"/>
                </g>
                <g transform="matrix(1,0,-5.55112e-17,1,-0.618309,-0.373272)">
                    <circle cx="1723.31" cy="166.638" r="2.286" style="fill:white;"/>
                </g>
            </g>
        </g>
    </g>
</svg>
