<?xml version="1.0" encoding="UTF-8" standalone="no"?>
<!DOCTYPE svg PUBLIC "-//W3C//DTD SVG 1.1//EN" "http://www.w3.org/Graphics/SVG/1.1/DTD/svg11.dtd">
<svg width="100%" height="100%" viewBox="0 0 30 32" version="1.1" xmlns="http://www.w3.org/2000/svg" xmlns:xlink="http://www.w3.org/1999/xlink" xml:space="preserve" xmlns:serif="http://www.serif.com/" style="fill-rule:evenodd;clip-rule:evenodd;stroke-linejoin:round;stroke-miterlimit:1.41421;">
    <g id="Plan-de-travail1" serif:id="Plan de travail1" transform="matrix(1,0,0,1.02165,-0.725664,-4.02458)">
        <rect x="0.726" y="3.939" width="29.204" height="30.664" style="fill:none;"/>
        <g transform="matrix(0.990713,0,0,0.980282,-1332.01,-7.80646)">
            <g transform="matrix(0.568179,0.562059,-0.404614,0.400256,455.723,-1017.9)">
                <path d="M1711.2,171.478L1711.2,203.993L1734.18,203.933L1734.11,171.478L1727.87,161.296L1717.68,161.296L1711.2,171.478Z" style="fill:rgb(217,65,44);"/>
            </g>
            <g transform="matrix(0.568179,0.562059,-0.532512,0.526776,476.2,-1038.85)">
                <circle cx="1723.31" cy="166.638" r="2.286" style="fill:rgb(62,62,62);"/>
            </g>
        </g>
        <g transform="matrix(0.562903,0.550977,-0.527566,0.516389,-857.654,-1021.06)">
            <g transform="matrix(1,0,0,0.759822,4.54747e-13,38.7396)">
                <path d="M1711.2,171.478L1711.2,203.993L1734.18,203.933L1734.11,171.478L1727.87,161.296L1717.68,161.296L1711.2,171.478Z" style="fill:white;"/>
            </g>
            <g transform="matrix(1,0,0,1,-0.618309,-0.373272)">
                <circle cx="1723.31" cy="166.638" r="2.286" style="fill:rgb(62,62,62);"/>
            </g>
        </g>
    </g>
</svg>
