<?xml version="1.0" encoding="UTF-8" standalone="no"?>
<!DOCTYPE svg PUBLIC "-//W3C//DTD SVG 1.1//EN" "http://www.w3.org/Graphics/SVG/1.1/DTD/svg11.dtd">
<svg width="100%" height="100%" viewBox="0 0 40 29" version="1.1" xmlns="http://www.w3.org/2000/svg" xmlns:xlink="http://www.w3.org/1999/xlink" xml:space="preserve" xmlns:serif="http://www.serif.com/" style="fill-rule:evenodd;clip-rule:evenodd;stroke-linejoin:round;stroke-miterlimit:1.41421;">
    <g transform="matrix(0.990713,0,0,1.0015,-1118.2,-20.9757)">
        <g transform="matrix(1.29535,0,0,1.2814,-1294.84,-236.807)">
            <g transform="matrix(1,0,0,1,0.0377546,0)">
                <path d="M1901.43,209.844L1901.43,223.673L1877.76,223.673L1877.96,209.844L1889.81,219.346L1901.43,209.844Z" style="fill:white;"/>
            </g>
            <g transform="matrix(1,0,0,1,27.0943,-0.849839)">
                <path d="M1862.72,218.815L1850.87,209.313L1874.2,209.313L1862.72,218.815Z" style="fill:white;"/>
            </g>
        </g>
        <g transform="matrix(1,0,0,0.998501,0,0.955554)">
            <g transform="matrix(1.00937,0,0,0.748571,0.209425,6.65367)">
                <g>
                    <rect x="1118" y="27.256" width="18.424" height="5.809" style="fill:rgb(217,65,44);"/>
                </g>
            </g>
            <g transform="matrix(6.18063e-17,-1,0.755588,4.58368e-17,1115.19,1156.44)">
                <g>
                    <rect x="1118" y="27.256" width="18.424" height="5.809" style="fill:rgb(217,65,44);"/>
                </g>
            </g>
        </g>
    </g>
</svg>
