<?xml version="1.0" encoding="UTF-8" standalone="no"?>
<!DOCTYPE svg PUBLIC "-//W3C//DTD SVG 1.1//EN" "http://www.w3.org/Graphics/SVG/1.1/DTD/svg11.dtd">
<svg width="100%" height="100%" viewBox="0 0 18 37" version="1.1" xmlns="http://www.w3.org/2000/svg" xmlns:xlink="http://www.w3.org/1999/xlink" xml:space="preserve" xmlns:serif="http://www.serif.com/" style="fill-rule:evenodd;clip-rule:evenodd;stroke-linecap:square;stroke-miterlimit:1.5;">
    <g id="Plan-de-travail1" serif:id="Plan de travail1" transform="matrix(0.955263,0,0,0.979159,-0.792228,-0.438208)">
        <rect x="0.829" y="0.448" width="18.255" height="36.881" style="fill:none;"/>
        <clipPath id="_clip1">
            <rect x="0.829" y="0.448" width="18.255" height="36.881"/>
        </clipPath>
        <g clip-path="url(#_clip1)">
            <g transform="matrix(0.601028,0,0,1.33993,-773.459,-178.873)">
                <path d="M1316.02,137.967C1316.02,137.967 1316.05,148.174 1316.07,154.785C1316.07,156.245 1314.75,157.646 1312.39,158.679C1310.04,159.712 1306.84,160.292 1303.5,160.292L1303.49,160.292C1296.59,160.292 1290.98,157.849 1290.96,154.828C1290.91,149.933 1290.85,142.89 1290.81,138.637C1290.8,137.664 1291.68,136.73 1293.25,136.042C1294.82,135.354 1296.96,134.969 1299.18,134.972C1301.42,134.975 1303.57,135.368 1305.15,136.066C1306.73,136.763 1307.61,137.707 1307.6,138.689C1307.54,143.352 1307.43,151.163 1307.38,154.557C1307.38,154.995 1306.97,155.413 1306.25,155.718C1305.54,156.023 1304.57,156.19 1303.57,156.18C1303.16,156.176 1302.88,156.174 1302.88,156.174C1301.91,156.185 1300.98,156.025 1300.29,155.731C1299.6,155.437 1299.21,155.033 1299.21,154.611C1299.19,150.415 1299.15,139.44 1299.15,139.44" style="fill:rgb(133,133,133);fill-opacity:0;stroke:white;stroke-width:2.47px;"/>
            </g>
        </g>
    </g>
</svg>
