<?xml version="1.0" encoding="UTF-8" standalone="no"?>
<!DOCTYPE svg PUBLIC "-//W3C//DTD SVG 1.1//EN" "http://www.w3.org/Graphics/SVG/1.1/DTD/svg11.dtd">
<svg width="100%" height="100%" viewBox="0 0 46 51" version="1.1" xmlns="http://www.w3.org/2000/svg" xmlns:xlink="http://www.w3.org/1999/xlink" xml:space="preserve" xmlns:serif="http://www.serif.com/" style="fill-rule:evenodd;clip-rule:evenodd;stroke-linejoin:round;stroke-miterlimit:1.41421;">
    <g transform="matrix(0.990713,0,0,1.0015,-1836.49,-14.6762)">
        <g transform="matrix(0.495645,0,0,0.490306,1800.09,-1014.18)">
            <path d="M136.043,2110.8C119.103,2118.25 108.168,2135.01 108.168,2153.52C108.168,2179.28 129.08,2200.19 154.838,2200.19C180.596,2200.19 201.508,2179.28 201.508,2153.52C201.508,2135.01 190.573,2118.25 173.633,2110.8L168.934,2121.48C181.639,2127.07 189.841,2139.64 189.841,2153.52C189.841,2172.84 174.156,2188.52 154.838,2188.52C135.519,2188.52 119.835,2172.84 119.835,2153.52C119.835,2139.64 128.037,2127.07 140.741,2121.48L136.043,2110.8Z" style="fill:rgb(217,65,44);"/>
        </g>
        <g transform="matrix(0.270087,0,0,0.382349,1835.1,-782.813)">
            <path d="M162.378,2090.21C162.378,2087.72 159.488,2085.7 155.929,2085.7L153.097,2085.7C149.538,2085.7 146.648,2087.72 146.648,2090.21L146.648,2137.41C146.648,2139.9 149.538,2141.91 153.097,2141.91L155.929,2141.91C159.488,2141.91 162.378,2139.9 162.378,2137.41L162.378,2090.21Z" style="fill:rgb(217,65,44);"/>
        </g>
    </g>
</svg>
