<?xml version="1.0" encoding="UTF-8" standalone="no"?>
<!DOCTYPE svg PUBLIC "-//W3C//DTD SVG 1.1//EN" "http://www.w3.org/Graphics/SVG/1.1/DTD/svg11.dtd">
<svg width="100%" height="100%" viewBox="0 0 40 62" version="1.1" xmlns="http://www.w3.org/2000/svg" xmlns:xlink="http://www.w3.org/1999/xlink" xml:space="preserve" xmlns:serif="http://www.serif.com/" style="fill-rule:evenodd;clip-rule:evenodd;stroke-linejoin:round;stroke-miterlimit:1.41421;">
    <g id="Plan-de-travail3" serif:id="Plan de travail3" transform="matrix(0.775986,0,0,1.24761,3.92309,0.529958)">
        <rect x="-5.056" y="-0.425" width="50.791" height="49.015" style="fill:none;"/>
        <g id="Plan-de-travail2" serif:id="Plan de travail2" transform="matrix(0.553336,0,0,0.524216,-0.0895044,9.82005)">
            <rect x="-6.926" y="-7.286" width="69.754" height="72.224" style="fill:none;"/>
            <g transform="matrix(1.24684,0,0,1.24684,0.258943,-10.6767)">
                <g transform="matrix(2.36827,0,0,1.63109,-3714.17,-28.9734)">
                    <g transform="matrix(1.04001,0,0,1.02881,-13.6442,-7.98971)">
                        <ellipse cx="1535.34" cy="34.047" rx="4.888" ry="4.561" style="fill:white;"/>
                    </g>
                    <g transform="matrix(0.917573,0,0,0.951911,178.189,-6.84572)">
                        <path d="M1540.99,47.183C1540.99,45.983 1540.47,44.832 1539.54,43.983C1538.62,43.135 1537.37,42.658 1536.06,42.658C1533.06,42.658 1529.23,42.658 1526.23,42.658C1524.92,42.658 1523.67,43.135 1522.75,43.983C1521.83,44.832 1521.31,45.983 1521.31,47.183C1521.31,51.837 1521.31,58.412 1521.31,58.412L1540.99,58.412C1540.99,58.412 1540.99,51.837 1540.99,47.183Z" style="fill:white;"/>
                    </g>
                </g>
                <g transform="matrix(1.57103,0,0,1.04266,-1815.13,-157.244)">
                    <g transform="matrix(2.28592,0,0,1.87575,-2860.32,-194.948)">
                        <rect x="1759.57" y="200.818" width="14.994" height="17.83" style="fill:rgb(217,65,44);"/>
                    </g>
                    <g transform="matrix(1.11261,-2.29796,2.06733,0.9795,-1228.04,4046.25)">
                        <rect x="1768.07" y="200.371" width="15.085" height="2.55" style="fill:rgb(217,65,44);"/>
                    </g>
                    <g transform="matrix(2.28592,0,0,2.26753,-2885.85,-274.776)">
                        <path d="M1775.03,204.786C1775.03,204.369 1774.69,204.031 1774.27,204.031C1774.03,204.031 1773.77,204.031 1773.53,204.031C1773.11,204.031 1772.77,204.369 1772.77,204.786C1772.77,206.539 1772.77,210.886 1772.77,212.951C1772.77,213.25 1772.89,213.536 1773.1,213.746C1773.31,213.957 1773.6,214.076 1773.9,214.076C1774.2,214.076 1774.49,213.957 1774.7,213.746C1774.91,213.536 1775.03,213.25 1775.03,212.951C1775.03,210.886 1775.03,206.539 1775.03,204.786Z" style="fill:rgb(62,62,62);"/>
                    </g>
                    <g transform="matrix(2.28592,0,0,2.26753,-2875.89,-274.776)">
                        <path d="M1775.03,204.786C1775.03,204.369 1774.69,204.031 1774.27,204.031C1774.03,204.031 1773.77,204.031 1773.53,204.031C1773.11,204.031 1772.77,204.369 1772.77,204.786C1772.77,206.539 1772.77,210.886 1772.77,212.951C1772.77,213.25 1772.89,213.536 1773.1,213.746C1773.31,213.957 1773.6,214.076 1773.9,214.076C1774.2,214.076 1774.49,213.957 1774.7,213.746C1774.91,213.536 1775.03,213.25 1775.03,212.951C1775.03,210.886 1775.03,206.539 1775.03,204.786Z" style="fill:rgb(62,62,62);"/>
                    </g>
                    <g transform="matrix(2.28592,0,0,2.26753,-2865.45,-274.776)">
                        <path d="M1775.03,204.786C1775.03,204.369 1774.69,204.031 1774.27,204.031C1774.03,204.031 1773.77,204.031 1773.53,204.031C1773.11,204.031 1772.77,204.369 1772.77,204.786C1772.77,206.539 1772.77,210.886 1772.77,212.951C1772.77,213.25 1772.89,213.536 1773.1,213.746C1773.31,213.957 1773.6,214.076 1773.9,214.076C1774.2,214.076 1774.49,213.957 1774.7,213.746C1774.91,213.536 1775.03,213.25 1775.03,212.951C1775.03,210.886 1775.03,206.539 1775.03,204.786Z" style="fill:rgb(62,62,62);"/>
                    </g>
                    <g transform="matrix(0.987445,-2.03944,2.06733,0.9795,-1006.21,3588.08)">
                        <rect x="1771.79" y="197.609" width="8.498" height="1.912" style="fill:rgb(217,65,44);"/>
                    </g>
                </g>
            </g>
        </g>
    </g>
</svg>
