<?xml version="1.0" encoding="UTF-8" standalone="no"?>
<!DOCTYPE svg PUBLIC "-//W3C//DTD SVG 1.1//EN" "http://www.w3.org/Graphics/SVG/1.1/DTD/svg11.dtd">
<svg width="100%" height="100%" viewBox="0 0 42 47" version="1.1" xmlns="http://www.w3.org/2000/svg" xmlns:xlink="http://www.w3.org/1999/xlink" xml:space="preserve" xmlns:serif="http://www.serif.com/" style="fill-rule:evenodd;clip-rule:evenodd;stroke-linejoin:round;stroke-miterlimit:1.41421;">
    <g id="Plan-de-travail1" serif:id="Plan de travail1" transform="matrix(0.941303,0,0,1,-0.303157,-1.88496)">
        <rect x="0.322" y="1.885" width="44.42" height="46.349" style="fill:none;"/>
        <g transform="matrix(0.936581,0.881607,-0.877786,0.826263,-1432.1,-1641)">
            <g transform="matrix(1,0,0,0.759822,4.54747e-13,38.7396)">
                <path d="M1711.2,171.478L1711.2,203.993L1734.18,203.933L1734.11,171.478L1727.87,161.296L1717.68,161.296L1711.2,171.478Z" style="fill:white;"/>
            </g>
            <g transform="matrix(1,0,0,1,-0.618309,-0.373272)">
                <circle cx="1723.31" cy="166.638" r="2.286" style="fill:rgb(62,62,62);"/>
            </g>
        </g>
        <g transform="matrix(0.990889,0,0,0.932727,-1747.11,-182.225)">
            <g transform="matrix(1,0,0,0.827223,8.54308,37.9308)">
                <rect x="1759.57" y="200.818" width="14.994" height="17.83" style="fill:rgb(217,65,44);"/>
            </g>
            <g transform="matrix(1.12676,0,0,1,-225.078,0)">
                <rect x="1768.07" y="200.371" width="15.085" height="2.55" style="fill:rgb(217,65,44);"/>
            </g>
            <g transform="matrix(1,0,0,1,-2.62545,2.72567)">
                <path d="M1775.03,205.158C1775.03,204.535 1774.52,204.031 1773.9,204.031C1773.28,204.031 1772.77,204.535 1772.77,205.158C1772.77,207.09 1772.77,211.016 1772.77,212.949C1772.77,213.571 1773.28,214.076 1773.9,214.076C1774.52,214.076 1775.03,213.571 1775.03,212.949C1775.03,211.016 1775.03,207.09 1775.03,205.158Z" style="fill:rgb(62,62,62);"/>
            </g>
            <g transform="matrix(1,0,0,1,1.73163,2.72567)">
                <path d="M1775.03,205.158C1775.03,204.535 1774.52,204.031 1773.9,204.031C1773.28,204.031 1772.77,204.535 1772.77,205.158C1772.77,207.09 1772.77,211.016 1772.77,212.949C1772.77,213.571 1773.28,214.076 1773.9,214.076C1774.52,214.076 1775.03,213.571 1775.03,212.949C1775.03,211.016 1775.03,207.09 1775.03,205.158Z" style="fill:rgb(62,62,62);"/>
            </g>
            <g transform="matrix(1,0,0,1,6.2962,2.72567)">
                <path d="M1775.03,205.158C1775.03,204.535 1774.52,204.031 1773.9,204.031C1773.28,204.031 1772.77,204.535 1772.77,205.158C1772.77,207.09 1772.77,211.016 1772.77,212.949C1772.77,213.571 1773.28,214.076 1773.9,214.076C1774.52,214.076 1775.03,213.571 1775.03,212.949C1775.03,211.016 1775.03,207.09 1775.03,205.158Z" style="fill:rgb(62,62,62);"/>
            </g>
            <g transform="matrix(1,0,0,1,-0.42492,0)">
                <rect x="1771.79" y="197.609" width="8.498" height="1.912" style="fill:rgb(217,65,44);"/>
            </g>
        </g>
    </g>
</svg>
